<svg width="37" height="38" viewBox="0 0 37 38" fill="none" xmlns="http://www.w3.org/2000/svg">
<rect x="0.0533447" y="0.353333" width="36.6933" height="36.6933" rx="18.3467" fill="#E9DAF3"/>
<path d="M22.65 27.2V27.49C21.17 28.44 19.4 29 17.5 29C15.57 29 13.77 28.42 12.27 27.43V27.2C12.27 24.87 14.6 22.97 17.46 22.97C20.33 22.97 22.65 24.87 22.65 27.2Z" fill="#BB6BD9"/>
<path opacity="0.4" d="M27 19.5C27 22.85 25.27 25.79 22.65 27.49V27.2C22.65 24.87 20.33 22.97 17.46 22.97C14.6 22.97 12.27 24.87 12.27 27.2V27.43C9.7 25.73 8 22.82 8 19.5C8 14.25 12.25 10 17.5 10C18.81 10 20.06 10.26 21.2 10.74C21.07 11.14 21 11.56 21 12C21 12.75 21.21 13.46 21.58 14.06C21.78 14.4 22.04 14.71 22.34 14.97C23.04 15.61 23.97 16 25 16C25.44 16 25.86 15.93 26.25 15.79C26.73 16.93 27 18.19 27 19.5Z" fill="#BB6BD9"/>
<path d="M27.97 9.33002C27.25 8.51002 26.18 8 25 8C23.88 8 22.86 8.46002 22.13 9.21002C21.71 9.64002 21.39 10.16 21.2 10.74C21.07 11.14 21 11.56 21 12C21 12.75 21.21 13.46 21.58 14.06C21.78 14.4 22.04 14.71 22.34 14.97C23.04 15.61 23.97 16 25 16C25.44 16 25.86 15.93 26.25 15.79C27.17 15.5 27.94 14.87 28.42 14.06C28.63 13.72 28.79 13.33 28.88 12.93C28.96 12.63 29 12.32 29 12C29 10.98 28.61 10.04 27.97 9.33002ZM26.49 12.73H25.75V13.51C25.75 13.92 25.41 14.26 25 14.26C24.59 14.26 24.25 13.92 24.25 13.51V12.73H23.51C23.1 12.73 22.76 12.39 22.76 11.98C22.76 11.57 23.1 11.23 23.51 11.23H24.25V10.52C24.25 10.11 24.59 9.77002 25 9.77002C25.41 9.77002 25.75 10.11 25.75 10.52V11.23H26.49C26.9 11.23 27.24 11.57 27.24 11.98C27.24 12.39 26.91 12.73 26.49 12.73Z" fill="#BB6BD9"/>
<path d="M17.46 21.73C19.0119 21.73 20.27 20.4719 20.27 18.92C20.27 17.3681 19.0119 16.11 17.46 16.11C15.9081 16.11 14.65 17.3681 14.65 18.92C14.65 20.4719 15.9081 21.73 17.46 21.73Z" fill="#BB6BD9"/>
</svg>
