<svg width="37" height="38" viewBox="0 0 37 38" fill="none" xmlns="http://www.w3.org/2000/svg">
<rect x="0.0533447" y="0.353333" width="36.6933" height="36.6933" rx="18.3467" fill="#D5DFF0"/>
<path d="M23.65 27.2V27.49C22.17 28.44 20.4 29 18.5 29C16.57 29 14.77 28.42 13.27 27.43V27.2C13.27 24.87 15.6 22.97 18.46 22.97C21.33 22.97 23.65 24.87 23.65 27.2Z" fill="#4C7CB0"/>
<path opacity="0.4" d="M28 19.5C28 22.85 26.27 25.79 23.65 27.49V27.2C23.65 24.87 21.33 22.97 18.46 22.97C15.6 22.97 13.27 24.87 13.27 27.2V27.43C10.7 25.73 9 22.82 9 19.5C9 14.25 13.25 10 18.5 10C19.81 10 21.06 10.26 22.2 10.74C22.07 11.14 22 11.56 22 12C22 12.75 22.21 13.46 22.58 14.06C22.78 14.4 23.04 14.71 23.34 14.97C24.04 15.61 24.97 16 26 16C26.44 16 26.86 15.93 27.25 15.79C27.73 16.93 28 18.19 28 19.5Z" fill="#6BA0D9"/>
<path d="M18.46 21.73C20.0119 21.73 21.27 20.4719 21.27 18.92C21.27 17.3681 20.0119 16.11 18.46 16.11C16.9081 16.11 15.65 17.3681 15.65 18.92C15.65 20.4719 16.9081 21.73 18.46 21.73Z" fill="#4C7CB0"/>
<path d="M29.8807 11.0378C29.7807 10.6478 29.6207 10.2578 29.4007 9.9078C29.2507 9.6478 29.0507 9.39781 28.8307 9.16781C28.1107 8.44781 27.1707 8.05784 26.2107 8.00784C25.1207 7.93784 24.0107 8.33781 23.1707 9.16781C22.3807 9.95781 21.9807 11.0078 22.0007 12.0578C22.0107 13.0578 22.4107 14.0578 23.1707 14.8278C23.7007 15.3578 24.3507 15.7078 25.0407 15.8678C25.4207 15.9678 25.8207 16.0078 26.2207 15.9778C27.1707 15.9378 28.1007 15.5578 28.8307 14.8278C29.8607 13.7978 30.2107 12.3478 29.8807 11.0378ZM27.6007 13.5978C27.3107 13.8878 26.8307 13.8878 26.5407 13.5978L25.9907 13.0478L25.4607 13.5778C25.1707 13.8678 24.6907 13.8678 24.4007 13.5778C24.1107 13.2778 24.1107 12.8078 24.4007 12.5178L24.9307 11.9878L24.4207 11.4878C24.1307 11.1878 24.1307 10.7178 24.4207 10.4178C24.7207 10.1278 25.1907 10.1278 25.4907 10.4178L25.9907 10.9278L26.5207 10.3979C26.8107 10.1079 27.2807 10.1079 27.5807 10.3979C27.8707 10.6879 27.8707 11.1678 27.5807 11.4578L27.0507 11.9878L27.6007 12.5378C27.8907 12.8278 27.8907 13.3078 27.6007 13.5978Z" fill="#4C7CB0"/>
</svg>
