<svg width="37" height="37" viewBox="0 0 37 37" fill="none" xmlns="http://www.w3.org/2000/svg">
<rect width="36.6933" height="36.6933" rx="18.3467" fill="#F0D5D5"/>
<path d="M22.4967 27.0356V27.3256C21.0167 28.2756 19.2467 28.8356 17.3467 28.8356C15.4167 28.8356 13.6167 28.2556 12.1167 27.2656V27.0356C12.1167 24.7056 14.4467 22.8055 17.3067 22.8055C20.1767 22.8055 22.4967 24.7056 22.4967 27.0356Z" fill="#B04C4C"/>
<path opacity="0.4" d="M26.8467 19.3356C26.8467 22.6856 25.1167 25.6256 22.4967 27.3256V27.0356C22.4967 24.7056 20.1767 22.8055 17.3067 22.8055C14.4467 22.8055 12.1167 24.7056 12.1167 27.0356V27.2656C9.54668 25.5656 7.84668 22.6556 7.84668 19.3356C7.84668 14.0856 12.0967 9.83557 17.3467 9.83557C18.6567 9.83557 19.9067 10.0956 21.0467 10.5756C20.9167 10.9756 20.8467 11.3956 20.8467 11.8356C20.8467 12.5856 21.0567 13.2956 21.4267 13.8956C21.6267 14.2356 21.8867 14.5455 22.1867 14.8055C22.8867 15.4455 23.8167 15.8356 24.8467 15.8356C25.2867 15.8356 25.7067 15.7655 26.0967 15.6255C26.5767 16.7655 26.8467 18.0256 26.8467 19.3356Z" fill="#D96B6B"/>
<path d="M17.3066 21.5656C18.8585 21.5656 20.1166 20.3075 20.1166 18.7556C20.1166 17.2036 18.8585 15.9456 17.3066 15.9456C15.7547 15.9456 14.4966 17.2036 14.4966 18.7556C14.4966 20.3075 15.7547 21.5656 17.3066 21.5656Z" fill="#B04C4C"/>
<path d="M28.225 9.77806L28.225 9.77807L28.2255 9.77887C28.444 10.1265 28.603 10.514 28.7025 10.9018C29.0304 12.2035 28.6825 13.6444 27.659 14.6679C26.9336 15.3934 26.0096 15.7708 25.0656 15.8106L25.0656 15.8106L25.0648 15.8106C24.6677 15.8404 24.2705 15.8007 23.8931 15.7014L23.8931 15.7014L23.8923 15.7012C23.2068 15.5423 22.5611 15.1946 22.0344 14.668C21.279 13.9026 20.8816 12.9088 20.8717 11.9153L20.8717 11.9151C20.8518 10.8718 21.2493 9.82838 22.0343 9.0433C22.8693 8.21831 23.9723 7.82101 25.0551 7.89055L25.0554 7.89057C26.0094 7.94026 26.9434 8.32776 27.6588 9.04306C27.8778 9.27202 28.0763 9.52035 28.225 9.77806ZM25.3467 13.8606V13.8607L25.3494 13.8604L25.3467 13.8356L25.3495 13.8604L25.3495 13.8604L25.3496 13.8604L25.3501 13.8603L25.3519 13.8601L25.3589 13.8593L25.3854 13.8559C25.4083 13.8529 25.4413 13.8482 25.4818 13.8417C25.5627 13.8286 25.6737 13.8082 25.7939 13.7786C25.914 13.749 26.0438 13.7102 26.1622 13.6603C26.2802 13.6106 26.3886 13.549 26.4644 13.4732C26.7641 13.1735 26.7641 12.6777 26.4644 12.3779L25.932 11.8456L26.4443 11.3333C26.7441 11.0335 26.7441 10.5377 26.4443 10.2379L26.444 10.2376C26.2926 10.0913 26.1462 9.98525 26.0376 9.91578C25.9833 9.88104 25.9384 9.85541 25.907 9.83843C25.8913 9.82994 25.8789 9.8236 25.8705 9.81937L25.8607 9.81458L25.8582 9.81335L25.8575 9.81303L25.8573 9.81294L25.8572 9.81291L25.8572 9.8129L25.8467 9.83557L25.8583 9.81057H25.8467H24.8467H23.8467V9.80721L23.8349 9.81353L23.8467 9.83557L23.8349 9.81354L23.8348 9.81355L23.8348 9.81358L23.8346 9.81368L23.8339 9.81404L23.8314 9.81543L23.8217 9.82083C23.8133 9.8256 23.801 9.8327 23.7854 9.84211C23.754 9.86094 23.7092 9.88902 23.655 9.92621C23.5467 10.0006 23.4005 10.1114 23.2493 10.2576L23.2493 10.2576L23.2487 10.2582C22.9494 10.5679 22.9494 11.0533 23.2487 11.363L23.2487 11.363L23.2492 11.3634L23.7411 11.8458L23.229 12.3579C22.9291 12.6579 22.9295 13.1435 23.2287 13.453L23.229 13.4533C23.3047 13.529 23.4129 13.5917 23.5309 13.6433C23.6491 13.6951 23.7789 13.7364 23.899 13.7685C24.0192 13.8006 24.1301 13.8235 24.2111 13.8384C24.2515 13.8459 24.2845 13.8514 24.3074 13.855L24.3339 13.859L24.3409 13.86L24.3427 13.8603L24.3431 13.8603L24.3433 13.8603L24.3433 13.8603L24.3467 13.8356L24.3433 13.8606H24.3467H24.8467H25.3467Z" fill="#B04C4C" stroke="#570404" stroke-width="0.05"/>
</svg>
