<svg width="14" height="14" viewBox="0 0 14 14" fill="none" xmlns="http://www.w3.org/2000/svg">
<path d="M7.77778 0H6.22222V7.77778H7.77778V0ZM11.5344 1.68778L10.43 2.79222C11.6589 3.78 12.4444 5.29667 12.4444 7C12.4444 10.01 10.01 12.4444 7 12.4444C3.99 12.4444 1.55556 10.01 1.55556 7C1.55556 5.29667 2.34111 3.78 3.56222 2.78444L2.46556 1.68778C0.956667 2.97111 0 4.86889 0 7C0 10.8656 3.13444 14 7 14C10.8656 14 14 10.8656 14 7C14 4.86889 13.0433 2.97111 11.5344 1.68778Z" fill="#FF0000"/>
</svg>
