<svg width="44" height="44" viewBox="0 0 44 44" fill="none" xmlns="http://www.w3.org/2000/svg">
<circle cx="21.9868" cy="21.9868" r="21.9868" fill="#FFEFF3"/>
<path d="M31.8006 20.4204L31.2932 19.152L30.3936 16.9028C29.6213 14.9722 27.7792 13.725 25.6996 13.725H19.967C17.8879 13.725 16.0453 14.9722 15.273 16.9028L14.3734 19.152L13.866 20.4204C12.7773 20.8344 12 21.8798 12 23.1139V25.2805C12 26.0082 12.278 26.6649 12.7222 27.1732V29.6139C12.7222 30.4115 13.369 31.0583 14.1666 31.0583H15.6111C16.4087 31.0583 17.0555 30.4115 17.0555 29.6139V28.1694H28.6111V29.6139C28.6111 30.4115 29.2579 31.0583 30.0555 31.0583H31.5C32.2976 31.0583 32.9444 30.4115 32.9444 29.6139V27.1732C33.3886 26.6654 33.6666 26.0086 33.6666 25.2805V23.1139C33.6666 21.8798 32.8893 20.8344 31.8006 20.4204ZM17.9551 17.9757C18.2842 17.1533 19.0809 16.6139 19.967 16.6139H25.6996C26.5857 16.6139 27.3824 17.1533 27.7115 17.9757L28.6111 20.225H17.0555L17.9551 17.9757ZM15.6111 25.2715C14.7444 25.2715 14.1666 24.6955 14.1666 23.8316C14.1666 22.9676 14.7444 22.3916 15.6111 22.3916C16.4777 22.3916 17.7777 23.6876 17.7777 24.5515C17.7777 25.4155 16.4777 25.2715 15.6111 25.2715ZM30.0555 25.2715C29.1889 25.2715 27.8889 25.4155 27.8889 24.5515C27.8889 23.6876 29.1889 22.3916 30.0555 22.3916C30.9222 22.3916 31.5 22.9676 31.5 23.8316C31.5 24.6955 30.9222 25.2715 30.0555 25.2715Z" fill="#F65D88"/>
</svg>
